<?xml version="1.0" standalone="no"?>
<!DOCTYPE svg PUBLIC "-//W3C//DTD SVG 20010904//EN"
 "http://www.w3.org/TR/2001/REC-SVG-20010904/DTD/svg10.dtd">
<svg version="1.0" xmlns="http://www.w3.org/2000/svg"
 width="400.000000pt" height="400.000000pt" viewBox="0 0 400.000000 400.000000"
 preserveAspectRatio="xMidYMid meet">
<metadata>
Created by potrace 1.13, written by Peter Selinger 2001-2015
</metadata>
<g transform="translate(0.000000,400.000000) scale(0.100000,-0.100000)"
fill="#000000" stroke="none">
<path d="M800 3626 c0 -2 44 -25 97 -51 430 -206 855 -564 1118 -940 447 -640
444 -1316 -8 -1928 -28 -38 -46 -72 -41 -76 9 -8 317 -171 477 -251 l89 -45
68 73 c181 195 322 474 382 757 29 142 29 405 -1 557 -144 722 -734 1339
-1655 1730 -206 87 -526 193 -526 174z"/>
<path d="M255 3171 c51 -18 199 -90 268 -129 210 -121 420 -307 533 -472 77
-113 95 -151 144 -304 7 -22 12 -91 12 -160 0 -209 -53 -343 -215 -547 -60
-76 -174 -190 -247 -248 -14 -10 -23 -21 -20 -24 11 -9 582 -307 589 -307 4 0
30 28 57 63 163 204 272 399 332 597 48 158 39 456 -17 585 -131 301 -371 534
-749 724 -195 99 -368 160 -621 221 -103 25 -133 25 -66 1z"/>
</g>
</svg>
